<svg width="300" height="326" viewBox="0 0 300 326" fill="none" xmlns="http://www.w3.org/2000/svg">
<path d="M104.699 325.728C162.523 325.728 209.398 318.386 209.398 309.328C209.398 300.27 162.523 292.927 104.699 292.927C46.8754 292.927 0 300.27 0 309.328C0 318.386 46.8754 325.728 104.699 325.728Z" fill="#F2EADD"/>
<path d="M300 302.82C300 306.998 247.187 312.505 182.038 312.505C116.89 312.505 64.0768 306.998 64.0768 302.82C64.0768 298.642 116.89 295.255 182.038 295.255C247.187 295.255 300 298.642 300 302.82Z" fill="#A5957F"/>
<path d="M193.994 165.597C197.021 166.592 210.55 166.505 213.746 165.728C216.943 164.951 229.812 162.682 234.548 163.789C239.283 164.896 246.215 167.412 252.076 178.453C257.936 189.493 255.922 200.507 247.586 204.081C244.896 204.141 242.814 205.413 240.242 206.128C237.671 206.843 234.699 207.176 232.437 205.899C230.406 204.753 229.454 202.602 228.703 200.573C227.083 196.191 225.819 191.704 224.925 187.158C218.176 186.086 211.034 184.671 205.14 181.592C199.247 178.51 194.555 171.652 193.994 165.597Z" fill="#E2C7A6"/>
<path d="M238.777 189.139C238.198 188.176 236.562 189.074 237.138 190.035C240.057 194.901 240.167 200.416 237.443 205.407C236.906 206.392 238.579 207.214 239.119 206.225C242.155 200.663 242.031 194.564 238.777 189.139Z" fill="#F7E2C4"/>
<path d="M247.581 192.148C247.105 196.355 246.391 200.698 243.205 204.052C242.41 204.889 243.788 206.063 244.588 205.221C248.134 201.489 248.968 196.801 249.5 192.104C249.623 191.017 247.703 191.071 247.581 192.148Z" fill="#F7E2C4"/>
<path d="M221.944 235.325C230.365 233.133 239.758 235.563 246.439 240.538C253.119 245.513 257.294 252.745 259.42 260.257C261.546 267.769 261.768 275.606 261.622 283.363C266.659 281.81 271.828 282.166 276.947 283.424C280.151 284.211 283.44 285.057 286.04 286.885C290.536 290.046 292.048 295.415 293.291 300.388C292.982 300.59 292.553 301.08 292.244 301.282L220.878 304.464C215.103 282.573 214.798 256.978 221.944 235.325Z" fill="#E2C7A6"/>
<path d="M293.804 300.611C292.182 298.826 291.375 296.595 289.474 294.989C287.616 293.418 285.264 292.413 282.965 291.452C281.786 290.959 280.788 292.538 281.971 293.032C284.108 293.925 286.338 294.832 288.062 296.296C289.822 297.792 290.555 299.899 292.066 301.562C292.873 302.451 294.623 301.513 293.804 300.611Z" fill="#F7E2C4"/>
<path d="M289.159 301.15C286.946 298.146 282.879 298.248 279.512 296.9C278.394 296.453 277.453 297.94 278.575 298.389C281.465 299.545 285.639 299.492 287.521 302.045C288.192 302.957 289.835 302.067 289.159 301.15Z" fill="#F7E2C4"/>
<path d="M169.69 11.3206C167.533 12.9442 166.693 17.0635 166.2 19.6704C165.707 22.2773 164.246 34.2664 164.701 34.6289C165.156 34.9913 178.773 36.493 179.172 35.6576C179.572 34.8221 184.094 19.8441 184.094 19.8441L169.69 11.3206Z" fill="#28150F"/>
<path d="M169.69 11.3207C168.235 12.4278 179.304 40.6551 198.88 45.9866C218.456 51.3171 235.373 42.6217 237.508 36.6588C239.642 30.6959 234.833 30.2898 230.966 25.7279C227.1 21.166 219.799 12.2256 217.163 8.2845C214.527 4.34338 210.63 0.662322 207.452 0.20809C204.275 -0.246141 202.365 1.11656 196.783 4.11181C191.2 7.10706 192.714 7.62097 188.228 7.79732C183.743 7.97367 190.293 7.42324 181.68 8.86876C173.067 10.3143 172.651 9.06827 169.69 11.3207Z" fill="#773833"/>
<path d="M236.617 280.514C235.825 284.23 234.724 287.927 233.297 291.588L125.155 290.748L118.945 155.971L200.043 157.653C201.023 158.616 212.717 185.744 225.807 213.738C227.52 217.412 229.138 221.207 230.606 225.108C233.357 232.412 235.589 240.076 236.93 247.898C238.769 258.614 238.962 269.64 236.617 280.514Z" fill="#F7E2C4"/>
<g opacity="0.5">
<path d="M138.755 166.651C133.401 165.623 128.047 164.593 122.693 163.561C121.485 163.329 121.01 165.111 122.222 165.344C127.575 166.376 132.93 167.406 138.284 168.434C139.492 168.667 139.967 166.884 138.755 166.651Z" fill="#231508"/>
<path d="M143.468 172.521C140.101 172.577 136.755 172.409 133.417 171.988C132.205 171.834 131.723 173.617 132.945 173.771C136.454 174.213 139.967 174.417 143.508 174.358C144.744 174.337 144.705 172.501 143.468 172.521Z" fill="#231508"/>
<path d="M152.698 169.429C150.38 169.242 148.092 168.895 145.823 168.408C144.618 168.15 144.146 169.933 145.351 170.191C147.789 170.714 150.248 171.064 152.738 171.266C153.967 171.365 153.917 169.527 152.698 169.429Z" fill="#231508"/>
</g>
<path opacity="0.5" d="M236.931 247.897C236.024 248.105 235.049 248.307 234.017 248.484C198.298 254.587 181.1 207.363 181.1 207.363C186.04 208.99 192.802 202.994 192.802 202.994C192.802 202.994 200.386 208.265 207.756 213.047C213.287 216.64 221.868 214.859 225.808 213.739C227.521 217.413 229.139 221.208 230.607 225.108C233.357 232.411 235.589 240.076 236.931 247.897Z" fill="#231508"/>
<path opacity="0.5" d="M226.026 244.93C225.615 243.907 223.772 244.393 224.186 245.425C226 249.945 226.987 254.574 227.143 259.379C227.179 260.471 229.098 260.429 229.062 259.335C228.9 254.376 227.899 249.596 226.026 244.93Z" fill="#231508"/>
<path opacity="0.5" d="M232.658 245.324C232.184 244.331 230.337 244.812 230.817 245.819C231.687 247.643 231.989 249.509 231.736 251.484C231.597 252.568 233.517 252.513 233.655 251.439C233.924 249.337 233.585 247.266 232.658 245.324Z" fill="#231508"/>
<path d="M234.253 307.603C230.756 310.085 217.21 307.361 207.169 306.44C197.127 305.519 185.619 305.191 173.808 307.346C161.997 309.492 162.943 307.142 158.927 307.696C157.472 307.895 153.424 308.21 148.453 308.458C139.732 308.901 128.191 309.138 122.988 308.171C114.828 306.647 101.557 287.654 99.5865 264.757C98.0905 247.414 109.982 193.855 115.828 168.954C117.692 160.998 118.941 155.967 118.941 155.967L159.63 230.819C204.825 241.231 193.357 285.063 193.357 285.063C208.15 278.571 231.312 286.762 234.84 293.574C238.367 300.388 237.749 305.121 234.253 307.603Z" fill="#F7E2C4"/>
<path d="M234.545 291.328C223.952 284.536 206.007 276.509 193.89 284.531C195.889 272.782 192.88 260.284 187.138 249.705C181.346 239.03 170.859 234.257 157.759 233.771C156.525 233.726 156.567 235.424 157.796 235.47C163.779 235.692 169.816 236.664 174.975 239.472C180.616 242.541 184.139 247.543 186.623 252.853C191.547 263.381 194.173 275.178 191.553 286.506C191.361 287.335 192.477 287.907 193.175 287.295C204.492 277.359 223.147 286.11 233.61 292.817C234.605 293.456 235.53 291.959 234.545 291.328Z" fill="#4C3027"/>
<path d="M232.159 296.268C231.327 295.462 230.001 296.699 230.828 297.5C233.52 300.108 234.59 303.561 233.802 307.039C233.559 308.111 235.419 308.522 235.662 307.447C236.59 303.348 235.327 299.337 232.159 296.268Z" fill="#4C3027"/>
<path d="M231.436 308.362C230.51 306.519 229.352 304.684 227.682 303.285C226.954 302.675 226.128 302.157 225.202 301.808C224.102 301.395 222.934 301.262 221.945 300.633C220.945 299.997 220.021 301.493 221.008 302.122C222.523 303.086 224.479 303.112 225.939 304.188C227.573 305.391 228.741 307.155 229.595 308.856C230.089 309.838 231.936 309.358 231.436 308.362Z" fill="#4C3027"/>
<path d="M184.436 182.385C187.768 180.918 199.409 179.645 201.717 178.977C204.025 178.309 204.623 174.138 210.315 176.898C216.007 179.658 232.403 190.416 234.944 195.766C237.484 201.115 234.927 209.705 230.827 212.901C226.728 216.097 214.312 214.579 210.444 213.81C206.577 213.041 197.706 205.714 197.042 205.178C196.377 204.643 187.184 199.402 187.184 199.402L184.436 182.385Z" fill="#F7E2C4"/>
<path d="M233.291 191.768C230.911 188.176 227.451 187.739 224.052 185.158C223.12 184.45 221.785 185.68 222.721 186.391C224.495 187.738 226.623 188.319 228.513 189.491C231.687 191.459 234.125 195.868 234.495 199.241C234.79 201.926 233.851 204.668 232.827 207.172C231.936 209.348 230.722 210.767 229.13 211.736C231.27 208.317 231.565 204.109 231.493 200.257C231.474 199.164 229.554 199.207 229.574 200.302C229.652 204.531 229.376 209.41 226.019 212.732C225.91 212.84 225.844 212.953 225.805 213.067C225.287 213.199 224.746 213.315 224.175 213.418C224.589 208.696 223.849 204.146 221.94 199.726C221.503 198.714 219.658 199.198 220.099 200.221C221.944 204.494 222.653 208.89 222.257 213.452C217.336 213.048 212.182 212.618 207.678 210.694C202.829 208.622 199.735 204.91 196.698 201.126C196.694 201.12 196.689 201.117 196.684 201.112C196.434 200.602 195.676 200.291 195.148 200.833C193.753 202.264 192.232 203.598 190.479 204.687C188.517 205.903 186.798 206.046 184.487 205.533C183.289 205.266 182.816 206.917 184.013 207.183C186.245 207.678 188.229 207.83 190.312 206.802C192.332 205.805 194.132 204.345 195.709 202.819C198.733 206.541 201.978 210.121 206.742 212.182C211.644 214.303 217.235 214.734 222.601 215.176C222.808 215.193 222.967 215.146 223.102 215.075C223.294 215.179 223.525 215.238 223.795 215.197C227.034 214.706 230.43 214.062 232.569 211.646C234.742 209.192 235.951 204.933 236.325 201.94C236.796 198.17 235.408 194.961 233.291 191.768Z" fill="#4C3027"/>
<path d="M119.229 141.9C119.229 141.9 117.695 156.889 118.972 158.148C120.249 159.405 182.379 172.027 197.02 167.143C211.66 162.261 212.739 159.13 213.422 156.238C214.104 153.346 211.833 139.772 211.833 139.772C211.833 139.772 170.621 155.076 119.229 141.9Z" fill="#B44035"/>
<path d="M157.435 300.141C155.08 303.457 152.002 306.234 148.452 308.459C139.731 308.902 128.19 309.139 122.987 308.172C114.827 306.649 101.556 287.656 99.5857 264.759C98.0896 247.415 109.981 193.856 115.827 168.955C122.2 174.021 126.683 180.943 128.362 188.402C130.25 196.808 128.548 205.831 123.678 213.277C120.471 218.18 115.758 223.06 116.547 228.662C117.139 232.912 120.884 236.306 125.051 238.446C129.22 240.586 133.917 241.782 138.225 243.692C151.068 249.382 159.602 261.233 162.167 273.768C164 282.715 162.919 292.417 157.435 300.141Z" fill="#BE755A"/>
<path d="M153.616 220.423C153.498 222.106 152.804 223.819 151.388 224.954C149.729 226.285 147.322 226.64 145.103 226.454C138.661 225.913 129.104 218.401 136.078 212.999C142.951 207.674 154.185 212.337 153.616 220.423Z" fill="#BE755A"/>
<path opacity="0.5" d="M127.861 294.372C116.295 286.295 109.645 272.61 110.184 258.207C110.229 257.013 108.432 257.015 108.388 258.207C107.824 273.28 114.875 287.538 126.955 295.975C127.914 296.646 128.814 295.038 127.861 294.372Z" fill="#231508"/>
<path opacity="0.5" d="M128.086 287.768C122.01 282.021 119.392 274.024 116.979 266.116C116.633 264.98 114.898 265.465 115.247 266.609C117.753 274.822 120.51 283.115 126.815 289.081C127.667 289.886 128.941 288.577 128.086 287.768Z" fill="#231508"/>
<path opacity="0.5" d="M127.27 272.444C125.324 269.397 123.904 266.142 122.994 262.614C122.697 261.46 120.964 261.949 121.262 263.107C122.208 266.777 123.694 270.212 125.718 273.381C126.353 274.373 127.908 273.444 127.27 272.444Z" fill="#231508"/>
<path d="M231.596 110.55C230.042 117.668 226.935 125.688 222.795 131.991C221.277 134.302 219.634 136.372 217.873 138.098C209.736 146.08 192.96 148.773 175.824 149.162C150.489 149.747 124.363 145.245 124.363 145.245C120.896 143.175 117.806 140.929 115.076 138.544C107.092 131.591 102.135 123.423 99.3504 114.866C97.7698 109.983 96.89 104.971 96.5573 99.9864C95.9558 90.9089 97.1683 81.8964 99.2426 73.8396C103.24 58.3298 110.424 46.3283 114.061 44.156C121.29 39.8311 129.76 30.9851 141.219 27.4484C144.039 26.5666 147.039 26.01 150.254 25.9164C157.879 25.7027 165.953 26.1204 172.779 26.7795C180.511 27.5125 186.645 28.5617 188.72 29.341C192.618 30.7981 205.676 44.6842 208.829 50.8003C210.508 54.0494 211.837 57.5015 212.834 60.9635C213.723 64.0077 214.378 67.0618 214.801 69.9671C215.725 76.1954 222.147 87.3329 230.23 93.6361C233.077 95.8565 233.293 102.66 231.596 110.55Z" fill="#F7E2C4"/>
<path d="M184.204 96.2743C177.701 103.913 168.487 108.555 159.065 111.506C144.453 116.091 128.369 116.945 114.061 111.422C107.568 108.926 101.533 104.99 96.5578 99.9874C94.8067 73.4603 108.538 47.4524 114.061 44.157C121.291 39.832 129.761 30.9861 141.22 27.4493C144.039 26.5676 147.039 26.0109 150.255 25.9174C157.88 25.7037 165.954 26.1214 172.779 26.7805C181.509 34.0205 188.46 43.5621 191.774 54.5607C196.022 68.6793 193.651 85.1732 184.204 96.2743Z" fill="#BE755A"/>
<path opacity="0.6" d="M137.726 106.112C134.889 119.2 127.282 131.489 115.966 138.051C115.669 138.218 115.373 138.385 115.076 138.543C107.092 131.59 102.135 123.422 99.3504 114.865C97.7698 109.982 96.89 104.971 96.5573 99.9855C95.9558 90.908 97.1683 81.8956 99.2426 73.8387L134.215 38.781C131.359 42.5868 130.739 47.7659 131.35 52.5371C131.961 57.3083 133.667 61.847 135.068 66.4321C138.984 79.2227 140.564 93.0251 137.726 106.112Z" fill="#231508"/>
<path d="M205.843 88.4053C205.656 94.093 202.355 99.4057 197.767 102.578C195.941 103.837 193.91 104.801 191.774 105.321C191.454 105.393 191.134 105.465 190.815 105.512C184.093 106.668 176.787 103.062 173.552 96.8558C170.168 90.3541 171.563 81.5874 176.785 76.5392C180.346 73.0951 185.317 71.8125 190.143 72.2979C198.357 73.1351 206.146 79.1194 205.843 88.4053Z" fill="white"/>
<path d="M190.143 72.2961C186.899 72.7522 183.806 74.0997 181.372 76.4555C176.143 81.5037 174.748 90.2703 178.132 96.773C180.633 101.575 185.581 104.826 190.815 105.511C191.134 105.464 191.454 105.392 191.774 105.32C193.91 104.801 195.941 103.837 197.767 102.577C202.356 99.4048 205.656 94.0921 205.843 88.4044C206.146 79.1194 198.357 73.1351 190.143 72.2961Z" fill="#231508"/>
<path d="M200.755 82.659C200.683 82.3989 200.593 82.146 200.481 81.9046C199.377 79.4892 196.252 79.8909 194.76 81.6526C193.731 82.8683 193.449 84.8856 194.327 86.2973C195.281 87.8337 197.311 88.2968 198.86 87.6484C200.72 86.8691 201.283 84.5819 200.755 82.659Z" fill="white"/>
<path d="M231.592 110.545C230.043 117.67 226.938 125.684 222.796 131.994C221.657 132.3 220.494 132.502 219.327 132.611C215.02 133.027 210.702 132.295 206.445 131.581C205.915 131.492 205.29 131.292 205.185 130.764C205.066 130.133 205.764 129.703 206.341 129.487C210.962 127.74 215.655 126.031 219.774 123.253C223.905 120.485 228.217 116.654 229.491 111.736C229.61 111.249 228.966 110.58 229.23 110.149C229.493 109.718 229.943 109.384 230.43 109.433C230.805 109.465 231.21 109.926 231.592 110.545Z" fill="white"/>
<path d="M216.751 137.249C220.871 140.455 223.255 145.603 222.973 150.688C222.796 153.88 221.642 156.976 221.554 160.17C221.465 163.364 222.864 166.975 226.011 168.029C228.811 168.969 232.017 167.457 233.773 165.157C235.528 162.857 236.129 159.95 236.517 157.13C237.269 151.657 237.394 146.108 236.888 140.613C236.618 137.671 236.097 134.585 234.161 132.29C231.555 129.202 222.793 126.535 218.643 126.369C211.708 126.092 204.232 127.71 198.852 132.412C200.98 133.205 203.853 133.571 206.134 133.648C209.997 133.776 213.723 134.895 216.751 137.249Z" fill="#DE9592"/>
<path d="M230.703 151.735C230.42 147.127 230.314 142.023 228.576 137.693C225.535 130.11 217.849 128.663 210.729 128.106C209.576 128.016 209.582 129.873 210.729 129.962C218.942 130.605 226.168 132.839 227.962 142.193C229.479 150.102 229.865 159.415 227.702 167.166C227.382 168.315 229.114 168.806 229.435 167.659C230.897 162.424 231.037 157.152 230.703 151.735Z" fill="#A85252"/>
<path d="M175.973 114.669C175.739 114.233 175.387 113.4 175.732 113.016C177.34 112.093 178.858 111.692 180.809 112C184.971 112.83 183.919 118.274 185.33 121.193C190.023 130.962 202.058 130.366 210.696 127.075C216.101 125.179 221.378 122.357 225.298 118.009C227.229 115.843 228.75 113.263 229.569 110.39C229.635 110.154 229.875 110.018 230.104 110.087C230.317 110.151 230.446 110.373 230.408 110.594C229.866 113.693 228.483 116.638 226.58 119.13C222.751 124.121 217.301 127.456 211.653 129.783C203.126 133.457 191.912 134.54 184.872 127.048C183.117 125.202 181.742 122.826 181.147 120.267C180.724 118.745 180.815 116.763 180.136 115.764C180.246 115.861 180.217 115.809 180.075 115.784C179.477 115.653 178.29 115.935 177.679 116.329C177.584 116.365 177.177 115.92 177.039 115.812C176.692 115.433 176.195 115.149 175.973 114.669Z" fill="#231508"/>
<path d="M216.523 98.6967C215.102 100.345 221.846 103.498 224.299 106.019C226.754 108.539 227.364 112.631 229.044 112.167C230.726 111.704 237.857 104.706 236.953 98.8125C236.049 92.9191 225.419 88.3732 216.523 98.6967Z" fill="#231508"/>
<g opacity="0.5">
<path d="M163.45 133.964C168.879 133.524 174.308 133.08 179.737 132.635C180.962 132.534 181.253 134.359 180.024 134.459C174.595 134.904 169.167 135.347 163.738 135.788C162.512 135.888 162.221 134.064 163.45 133.964Z" fill="#231508"/>
<path d="M158.166 139.289C161.51 139.711 164.854 139.906 168.216 139.85C169.438 139.829 169.735 141.654 168.504 141.675C164.969 141.733 161.456 141.555 157.94 141.111C156.713 140.956 156.939 139.134 158.166 139.289Z" fill="#231508"/>
<path d="M149.302 135.212C151.626 135.277 153.937 135.18 156.243 134.943C157.467 134.818 157.755 136.642 156.53 136.768C154.053 137.023 151.572 137.105 149.075 137.035C147.843 136.999 148.079 135.177 149.302 135.212Z" fill="#231508"/>
</g>
<path d="M174.591 106.352C174.454 109.005 170.228 110.906 165.153 110.599C160.078 110.292 156.074 107.892 156.211 105.238C156.348 102.585 160.573 100.684 165.649 100.991C170.724 101.299 174.728 103.698 174.591 106.352Z" fill="#DE9592"/>
<path d="M187.81 54.4138C188.774 56.8444 185.296 60.6208 180.042 62.8474C174.786 65.0749 169.745 64.9093 168.781 62.4787C167.816 60.0481 171.295 56.2717 176.55 54.0451C181.804 51.8185 186.845 51.9833 187.81 54.4138Z" fill="#904A42"/>
<path d="M132.6 37.012L137.539 46.5045C131.604 56.1369 126.68 64.1287 122.669 70.6393L114.82 41.6612L132.6 37.012Z" fill="#28150F"/>
<path d="M131.565 37.9566C128.61 38.1882 125.997 41.781 124.838 44.4726C124.515 45.2332 124.605 47.8143 124.83 51.4802C125.413 60.7991 126.922 77.098 124.901 88.2738C122.09 103.84 95.4438 114.504 87.2259 116.23C79.0079 117.966 78.5236 114.328 76.027 108.582C73.539 102.837 74.1406 95.0775 70.7641 90.8817C70.4409 90.4826 70.1083 89.9349 69.767 89.2669C66.5069 82.9647 62.5194 65.9141 61.3612 59.407C60.0858 52.2132 68.6812 37.6128 73.4589 37.3812C78.2366 37.1586 80.4376 36.3882 83.3022 36.2492C86.1667 36.1103 93.298 31.4878 95.8842 32.2119C98.4704 32.9262 108.951 24.7955 113.379 23.9235C117.816 23.0498 137.277 37.5202 131.565 37.9566Z" fill="#904A42"/>
<g opacity="0.5">
<path d="M91.8106 38.8464C86.2935 44.6703 76.9406 41.0018 71.5476 47.5284C66.9086 53.1422 67.5274 60.7457 69.8343 67.2465C70.2575 68.4382 72.1 67.8789 71.6734 66.6765C68.5038 57.7451 69.6947 47.0778 80.2059 44.9331C84.9517 43.9641 89.6028 44.0157 93.199 40.218C94.0633 39.3033 92.6759 37.9335 91.8106 38.8464Z" fill="#231508"/>
<path d="M77.2741 48.8369C74.0761 52.6195 73.6779 58.0284 74.7715 62.7471C75.0593 63.9878 76.8975 63.4169 76.6106 62.1771C75.6859 58.1852 75.9392 53.4282 78.6625 50.2076C79.4725 49.2475 78.0885 47.8732 77.2741 48.8369Z" fill="#231508"/>
<path d="M81.4589 53.6344C80.8419 55.1066 80.5179 56.6314 80.5239 58.2391C80.5291 59.5163 82.4474 59.4717 82.4431 58.1945C82.4388 56.9521 82.6585 55.7399 83.1377 54.5972C83.6254 53.4331 81.9501 52.4632 81.4589 53.6344Z" fill="#231508"/>
</g>
<path opacity="0.2" d="M124.901 88.2732C122.09 103.839 95.4439 114.504 87.2259 116.23C79.008 117.966 78.5237 114.327 76.0271 108.582C73.5391 102.836 74.1406 95.0769 70.7642 90.881C70.441 90.482 70.1084 89.9342 69.7671 89.2663L70.0722 87.9668C76.988 90.6958 84.8724 90.7332 91.8149 88.0505C98.7574 85.3777 104.685 80.0124 108.178 73.2551C110.406 68.9488 111.663 64.15 113.98 59.8989C116.297 55.6567 120.132 51.8145 124.829 51.4805C125.413 60.7993 126.922 77.0982 124.901 88.2732Z" fill="#231508"/>
<path d="M112.583 302.744C105.054 305.796 96.821 306.028 89.0331 304.169C80.6669 302.171 72.7652 297.819 65.59 292.294C59.112 287.305 52.9081 280.912 50.2417 272.303C48.4854 266.621 48.4087 260.436 48.5819 254.407C48.7525 248.67 49.1576 242.806 51.0552 237.531C51.1983 237.125 51.3586 236.72 51.5275 236.323C51.5275 236.323 51.5275 236.314 51.5266 236.303C53.4949 231.529 56.587 227.494 59.9436 223.975C64.7817 218.944 70.3488 214.771 76.5174 212.574C82.6861 210.368 89.4829 210.23 95.5223 212.965C86.3995 218.147 79.2476 227.971 76.233 239.447C74.999 244.143 74.4561 249.094 74.606 254.02C74.7947 261.127 76.4045 268.201 79.357 274.408C82.5223 281.094 87.1208 286.75 92.3932 291.173C95.8308 294.05 99.6296 296.406 103.677 297.79C107.162 298.976 110.437 298.658 113.965 299.088C118.469 299.629 115.005 301.762 112.583 302.744Z" fill="#BE755A"/>
<path d="M95.5223 212.966C86.3995 218.148 79.2476 227.972 76.2331 239.448C74.999 244.144 74.4561 249.095 74.606 254.021C72.2034 253.614 69.98 252.127 68.851 249.599C67.6144 246.822 67.8712 243.475 67.1033 240.476C66.3355 237.476 63.4994 234.625 61.251 236.237C60.4349 236.82 59.9325 237.847 59.4636 238.833C58.501 240.858 57.5393 242.881 56.5767 244.916C55.7597 246.625 54.5084 248.595 52.877 248.241C50.9475 247.814 50.6088 244.713 50.8122 242.395C50.9966 240.369 51.231 238.342 51.5249 236.323C51.5249 236.323 51.5249 236.313 51.524 236.302C53.4924 231.528 56.5844 227.494 59.9411 223.975C64.7791 218.943 70.3462 214.77 76.5149 212.573C82.6861 210.369 89.483 210.231 95.5223 212.966Z" fill="#F7E2C4"/>
<path opacity="0.5" d="M82.0968 290.814C71.0255 286.715 60.8177 279.659 56.638 267.811C56.245 266.697 54.5085 267.178 54.9058 268.304C59.3207 280.817 69.8965 288.263 81.6194 292.604C82.7095 293.008 83.1783 291.215 82.0968 290.814Z" fill="#231508"/>
<path opacity="0.5" d="M72.1551 276.717C68.5907 273.474 65.4926 269.812 62.8831 265.71C62.2506 264.716 60.6951 265.645 61.3319 266.647C64.0233 270.877 67.2067 274.685 70.8848 278.03C71.75 278.817 73.0255 277.509 72.1551 276.717Z" fill="#231508"/>
<path opacity="0.5" d="M58.5045 263.184C57.279 260.942 56.6895 258.544 56.7171 255.971C56.73 254.775 54.9341 254.774 54.9212 255.971C54.8901 258.858 55.5804 261.607 56.9541 264.121C57.5212 265.161 59.0741 264.227 58.5045 263.184Z" fill="#231508"/>
</svg>
