<svg width="145" height="134" viewBox="0 0 145 134" fill="none" xmlns="http://www.w3.org/2000/svg">
<path d="M73.9954 133.316C112.665 133.316 144.012 129.428 144.012 124.633C144.012 119.837 112.665 115.95 73.9954 115.95C35.3262 115.95 3.97852 119.837 3.97852 124.633C3.97852 129.428 35.3262 133.316 73.9954 133.316Z" fill="#F2EADD"/>
<path d="M106.395 102.294C106.315 104.039 104.26 106.728 103.27 108.813C102.041 111.387 99.1387 121.753 98.3833 123.532C97.6319 125.315 93.5291 124.897 91.1872 124.951C88.8414 125.002 89.6804 124.754 88.7581 124.917C87.8398 125.08 81.729 124.612 80.9736 124.327C80.2222 124.038 80.4728 124.109 81.3114 122.11C82.1461 120.106 85.4103 118.965 87.5098 119.108C89.6089 119.251 91.3542 119.251 92.1893 118.321C93.0283 117.39 93.7797 104.81 93.7797 104.81C93.748 104.787 93.7121 104.763 93.6804 104.732C93.3426 105.438 92.9329 106.019 92.4797 106.097C91.2474 106.311 92.0622 103.452 92.0622 103.452C92.0622 103.452 90.1816 104.169 89.5139 103.452C89.0686 102.977 90.5237 102.284 91.5496 101.87C90.48 100.121 89.3708 98.1283 88.5122 97.2692C87.0133 95.7683 86.878 91.7009 85.9956 90.4107V90.4074C85.1171 89.1206 84.7433 88.0475 83.4868 86.7269C82.2302 85.4027 80.4016 84.5743 78.561 84.2652L89.4306 78.9854L103.66 96.9466C103.66 96.9466 104.829 99.7343 106.085 101.238C106.323 101.523 106.415 101.883 106.395 102.294Z" fill="#C6BAAF"/>
<path d="M97.9318 123.511C95.7737 125.297 92.316 124.391 89.6649 124.669C86.6036 124.989 83.7859 124.676 80.8623 123.879C80.3736 123.746 80.1644 124.401 80.6508 124.534C83.7597 125.381 86.6267 125.67 89.876 125.323C92.7437 125.017 96.1529 125.928 98.494 123.991C98.8623 123.686 98.2997 123.207 97.9318 123.511Z" fill="#A5958C"/>
<path opacity="0.5" d="M106.395 102.294C105.568 102.973 104.562 103.476 103.441 103.669C100.268 104.223 97.2105 102.243 95.3659 99.9684C93.5214 97.697 92.3641 95.0145 90.1857 92.9707C89.0206 91.8773 87.5775 91.0015 85.9953 90.4105V90.4071C85.1168 89.1203 84.743 88.0472 83.4864 86.7267C82.2299 85.4025 80.4013 84.5741 78.5607 84.2649L89.4303 78.9851L103.66 96.9464C103.66 96.9464 104.828 99.734 106.085 101.238C106.323 101.523 106.415 101.883 106.395 102.294Z" fill="#231508"/>
<path d="M92.0212 121.67C92.2319 121.276 91.547 120.93 91.3347 121.327C91.0168 121.923 90.6986 122.562 90.6137 123.217C90.5305 123.86 90.8339 124.485 91.113 125.069C91.3038 125.468 92.0732 125.294 91.8797 124.888C91.6404 124.387 91.3664 123.856 91.4125 123.309C91.4594 122.752 91.753 122.172 92.0212 121.67Z" fill="#4D5056"/>
<path d="M86.2739 121.089C84.6682 121.593 83.3769 123.273 83.4367 124.724C83.4547 125.159 84.2499 125.161 84.2319 124.724C84.1862 123.604 85.2168 122.142 86.4854 121.744C86.9616 121.595 86.756 120.938 86.2739 121.089Z" fill="#4D5056"/>
<path d="M37.1574 114.728C36.4776 116.337 35.6507 121.108 35.2132 121.485C34.7718 121.858 20.2087 122.137 20.2087 122.137C20.2087 122.137 18.515 122.126 18.2644 121.271C18.0099 120.412 18.7019 116.983 19.5804 116.446C20.4589 115.91 21.6517 115.214 22.5306 115.374C23.4091 115.533 25.9019 114.766 26.737 114.623C27.4963 114.494 29.8343 108.905 30.3312 107.323C29.4883 107.85 28.6097 108.281 28.1207 108.189C27.0193 107.982 29.9136 105.707 30.0649 105.585C29.8902 105.612 27.0514 106.074 27.1151 105.347C27.1589 104.831 28.6774 104.495 29.6278 104.332C29.0472 102.79 28.3157 100.96 27.9936 99.8974C27.4091 97.9689 25.3577 92.214 24.6024 88.9135C23.8509 85.6166 20.5989 75.0537 20.5989 75.0537L38.9786 87.9796C38.9786 87.9796 38.8554 92.6958 38.6646 94.8417C38.4777 96.9842 40.1714 105.455 40.6128 106.688C41.0495 107.92 37.8373 113.122 37.1574 114.728Z" fill="#EADFD3"/>
<path d="M35.3529 121.296C32.6029 121.615 29.8391 121.815 27.0641 121.869C25.8771 121.893 24.6843 121.848 23.4989 121.904C21.9932 121.974 20.0243 122.698 18.8092 121.623C18.453 121.308 17.8912 121.789 18.247 122.103C18.8471 122.634 19.5106 122.885 20.3801 122.905C22.1035 122.944 23.8511 122.57 25.5983 122.564C28.9376 122.553 32.2561 122.335 35.5641 121.95C36.0692 121.892 35.8542 121.238 35.3529 121.296Z" fill="#A5958C"/>
<path d="M38.1246 107.97C38.9949 107.743 39.0782 106.434 38.9753 105.824C38.9124 105.45 39.5817 105.289 39.6455 105.666C39.8081 106.632 39.6114 108.203 38.3095 108.543C37.881 108.654 37.6977 108.082 38.1246 107.97Z" fill="#C6BAAF"/>
<path d="M21.0577 118.18C20.257 119.263 19.8969 120.497 20.0197 121.774C20.0612 122.207 20.8568 122.211 20.8149 121.774C20.7023 120.603 21.0089 119.517 21.7443 118.522C22.0183 118.152 21.3306 117.811 21.0577 118.18Z" fill="#4D5056"/>
<path d="M25.5251 119.495C25.1123 120.264 24.8831 121.066 24.848 121.913C24.83 122.35 25.6252 122.349 25.6432 121.913C25.6729 121.19 25.859 120.495 26.2116 119.837C26.4232 119.443 25.7382 119.097 25.5251 119.495Z" fill="#4D5056"/>
<path d="M31.16 94.9199C32.3247 94.7473 32.1562 93.5863 31.9947 92.8468C31.9173 92.4929 32.5033 92.2191 32.7215 92.585C32.863 92.8227 33.0311 93.2418 33.2333 93.4441C33.2919 93.7773 33.4405 93.8214 33.679 93.576C33.9421 93.5239 34.0308 93.395 33.9452 93.1887C34.0891 92.6929 33.7224 91.7613 33.6125 91.2411C33.5222 90.8137 34.2885 90.6304 34.3792 91.0605C34.5684 91.9566 35.269 93.784 34.258 94.5059C33.6754 94.9219 33.2035 94.6611 32.8325 94.2264C32.7051 94.8818 32.3059 95.4361 31.3711 95.575C30.871 95.6491 30.656 94.9947 31.16 94.9199Z" fill="#C6BAAF"/>
<path d="M141.962 49.1896C139.243 52.5238 135.184 54.8563 130.747 56.4183C129.415 56.8867 128.047 57.2874 126.672 57.6236C127.674 58.3672 129.009 58.8223 130.305 58.5879C128.389 60.058 125.63 60.6794 123.117 60.2109C122.859 61.5962 121.376 62.686 119.809 63.1071C118.243 63.5281 116.477 63.2463 115.094 62.4924C113.71 61.7385 108.637 58.4079 108.053 57.0971C113.599 56.3602 120.99 54.5234 123.412 50.1979C125.833 45.8757 127.626 41.2239 125.757 36.7014C124.72 34.1989 123.018 31.7816 120.374 30.3792C117.734 28.9769 114.029 28.831 111.647 30.5422C112.593 29.0854 114.299 28.0023 116.208 27.656C115.738 26.4507 114.272 25.4831 112.796 25.3201C111.321 25.1572 109.834 25.4697 108.395 25.7852C106.344 26.2366 104.233 26.7258 102.555 27.836C100.881 28.9462 99.7444 30.8477 100.341 32.5859C98.2892 29.1806 99.1759 24.6614 102.416 22.0129C102.42 20.2473 103.43 18.6821 104.929 17.4937C105.64 16.9268 106.459 16.448 107.338 16.071C110.061 14.8998 113.234 14.7298 116.275 14.9235C122.978 15.3478 129.634 17.5208 134.468 21.5104C139.298 25.5001 142.113 31.3876 141.219 37.0747C142.102 36.3582 142.789 35.3702 142.594 34.3415C146.248 38.6096 145.501 44.8537 141.962 49.1896Z" fill="#72757A"/>
<path d="M141.962 49.1894C139.243 52.5236 135.184 54.8561 130.747 56.4181C130.87 56.2007 131.005 55.9904 131.128 55.7867C132.003 54.3299 132.381 52.6632 132.21 51.0298C132.11 50.0925 131.852 49.0775 132.397 48.2558C132.941 47.4375 134.754 47.339 134.925 48.2695C136.659 43.4345 136.106 38.0325 133.418 33.5269C130.731 29.0248 125.936 25.4665 120.338 23.8231C121.952 22.964 123.94 22.6281 125.813 22.8996C119.368 19.9353 112.22 18.0849 104.928 17.4942C105.64 16.9273 106.459 16.4485 107.337 16.0715C110.061 14.9002 113.233 14.7303 116.275 14.924C122.978 15.3483 129.633 17.5213 134.468 21.5109C139.298 25.5006 142.113 31.3881 141.218 37.0752C142.101 36.3587 142.789 35.3707 142.594 34.342C146.248 38.6094 145.501 44.8535 141.962 49.1894Z" fill="#EADFD3"/>
<path d="M103.231 22.233C99.072 23.5102 98.6845 28.3195 99.7788 31.403C99.9032 31.7532 100.548 31.604 100.423 31.2514C99.4492 28.5085 99.6138 23.9482 103.409 22.783C103.81 22.6597 103.637 22.1085 103.231 22.233Z" fill="#4D5056"/>
<path d="M126.067 22.8215C124.376 22.1217 121.69 22.8025 120.164 23.5848C119.726 23.8095 120.125 24.3968 120.565 24.1711C121.786 23.5454 124.294 22.8402 125.665 23.4078C126.124 23.5978 126.528 23.0125 126.067 22.8215Z" fill="#4D5056"/>
<path d="M141.395 31.6877C141.177 31.2927 140.491 31.6372 140.709 32.0302C141.495 33.4513 141.132 35.1648 141.03 36.682C141 37.1184 141.795 37.117 141.825 36.682C141.938 35.0079 142.262 33.2536 141.395 31.6877Z" fill="#C6BAAF"/>
<path d="M137.794 41.0141C137.636 40.6 136.868 40.7773 137.027 41.1947C137.615 42.7403 137.623 44.2969 137.05 45.8461C136.896 46.2638 137.663 46.4424 137.817 46.0267C138.429 44.3716 138.422 42.6641 137.794 41.0141Z" fill="#C6BAAF"/>
<path d="M139.343 42.1581C139.329 42.8252 139.191 43.4639 138.935 44.0936C138.767 44.5073 139.535 44.685 139.702 44.2743C139.98 43.5891 140.123 42.8829 140.139 42.1584C140.148 41.721 139.353 41.721 139.343 42.1581Z" fill="#C6BAAF"/>
<path d="M124.763 48.2807C124.18 46.7876 123.675 45.2717 123.251 43.7398C123.183 43.4938 123.117 43.236 123.187 42.9902C123.258 42.7445 123.509 42.5168 123.804 42.5308C124.121 42.5455 124.333 42.8089 124.481 43.049C124.775 43.5301 125.018 44.0343 125.204 44.5535C125.403 43.7455 125.865 42.9859 126.526 42.3829C126.706 42.218 126.92 42.057 127.181 42.0276C127.697 41.9699 128.078 42.4296 128.249 42.8487C128.646 43.8206 128.608 44.9175 128.145 45.868C127.682 46.8186 126.798 47.6143 125.71 48.0587L124.763 48.2807Z" fill="#72757A"/>
<path d="M38.6648 82.9558C38.6648 82.9558 41.113 90.086 42.9334 92.3374C44.7537 94.5892 47.2649 96.1438 48.0183 96.68C48.7717 97.2162 49.5876 97.9131 49.5876 97.9131C49.5876 97.9131 50.4665 104.614 50.4665 106.384C50.4665 108.153 49.9375 114.13 48.8839 115.779C47.8302 117.427 47.8302 118.071 46.7629 118.553C45.6955 119.036 44.0636 119.25 43.0593 120.108C42.0549 120.965 40.9875 124.343 41.8039 124.986C42.6198 125.63 50.9063 125.147 52.2872 125.308C53.6681 125.469 57.6857 125.79 58.251 124.664C58.816 123.538 59.6319 118.66 59.8203 117.963C60.0088 117.266 65.2399 99.2353 64.0682 96.8049C62.8965 94.3745 62.5419 95.1064 61.9757 92.659C61.4096 90.2116 61.7247 88.5845 61.7247 88.5845L38.6648 82.9558Z" fill="#EADFD3"/>
<path d="M57.9037 124.711C55.9036 125.977 51.8864 125.108 49.5164 125.14C46.7143 125.178 43.4017 125.952 40.9636 124.534C40.5179 124.275 40.0894 124.864 40.53 125.12C43.3106 126.737 47.101 125.81 50.292 125.815C52.9455 125.818 56.2527 126.62 58.5105 125.191C58.9425 124.918 58.3315 124.441 57.9037 124.711Z" fill="#A5958C"/>
<path d="M44.7589 121.743C44.0325 122.748 43.5376 123.839 43.2893 125.001C43.1978 125.428 43.9641 125.611 44.056 125.181C44.2937 124.072 44.7511 123.047 45.4455 122.086C45.7152 121.713 45.0279 121.372 44.7589 121.743Z" fill="#4D5056"/>
<path d="M51.0261 121.575C50.1237 122.695 48.9891 123.83 48.7428 125.215C48.667 125.642 49.4329 125.827 49.5095 125.396C49.7445 124.074 50.8505 122.987 51.7126 121.918C52.0035 121.557 51.3146 121.217 51.0261 121.575Z" fill="#4D5056"/>
<path d="M54.3555 101.809C54.6155 101.654 54.8755 101.499 55.1355 101.344C55.1898 101.193 55.2446 101.042 55.2993 100.89C55.3904 100.638 55.4811 100.386 55.5722 100.134C55.659 99.8937 56.0437 99.8449 56.1981 100.064C56.6387 100.688 56.5312 101.286 56.7322 101.971C56.8538 102.386 56.984 103.141 57.6032 102.679C57.9453 102.424 57.984 101.837 58.2468 101.5C58.4692 101.215 58.9364 101.401 58.8727 101.726C58.8168 102.01 58.4516 103.228 59.5444 102.877C59.8028 102.794 59.7758 101.672 59.7899 101.452C59.8138 101.077 60.4991 101.075 60.4749 101.452C60.4299 102.152 60.3838 104.031 59.0561 103.889C58.4903 103.829 58.2413 103.469 58.1479 103.035C57.8836 103.403 57.5325 103.663 57.0058 103.511C56.1575 103.267 56.0566 102.211 55.9096 101.339C55.7235 101.87 55.4482 102.381 54.9103 102.562C54.327 102.759 53.7859 102.477 53.6951 101.964C53.6299 101.596 54.2898 101.437 54.3555 101.809Z" fill="#C6BAAF"/>
<path d="M124.29 83.3312C124.29 83.3312 122.497 83.8404 120.183 84.2651C117.197 84.815 113.337 85.219 111.357 84.1903C107.842 82.3669 90.1822 83.7252 89.4268 83.6537C88.6754 83.5823 81.8968 84.1529 79.718 84.7265C77.5434 85.2968 73.9454 86.0848 71.5996 87.015C69.2577 87.9419 62.8134 89.8026 59.8831 90.6581C56.9528 91.5172 42.5567 91.8567 42.5567 91.8567C27.6159 92.1793 22.9087 83.5449 22.3441 82.2614C21.8589 81.1546 19.7399 76.5472 19.0166 74.8427C18.8974 74.5676 18.818 74.3672 18.786 74.2724C18.7304 74.1095 18.6311 73.8718 18.5076 73.5933C18.1022 72.6834 17.434 71.3115 17.1955 70.412C16.8816 69.2337 17.6963 62.9592 17.6963 62.9592C17.6963 62.9592 15.5652 63.4958 15.0206 63.4958C14.4759 63.4958 14.2652 62.9966 14.6746 62.603C14.8853 62.396 15.9984 61.0784 17.0121 59.8698C17.0716 59.7983 17.1314 59.7272 17.1912 59.6557C17.4258 59.3739 17.6525 59.1058 17.859 58.8577C17.9106 58.7966 17.9583 58.7389 18.006 58.6811C18.1291 58.5319 18.2406 58.3993 18.3399 58.2804C18.3954 58.2127 18.4474 58.1482 18.4951 58.0938C18.6581 57.8968 18.7613 57.7713 18.7813 57.7476C18.6182 57.795 15.2149 58.8681 14.7262 58.1345C14.2253 57.3843 17.4891 54.7392 17.7796 54.5696C18.0736 54.4 17.4657 47.8434 17.4657 47.8434C17.911 47.6397 18.3801 47.4564 18.8692 47.2935C24.801 45.3005 33.5993 46.2207 40.2148 47.4905C45.3196 48.4684 49.1284 49.6567 49.3352 49.8808C49.5499 50.1082 50.2259 50.5429 51.1482 51.0998C52.4164 51.8604 54.1418 52.8551 55.7401 53.8467C58.503 55.5612 65.6596 56.4203 70.1761 56.6344C74.6964 56.8484 76.704 56.9569 78.7159 56.9569C80.7235 56.9569 87.1287 55.6701 90.2654 55.4561C93.4022 55.2421 97.044 56.4203 99.8074 56.4203C102.571 56.4203 108.47 55.3476 111.862 57.0654C115.249 58.7799 120.02 64.0327 121.026 66.9289C122.028 69.821 124.29 83.3312 124.29 83.3312Z" fill="#EADFD3"/>
<path d="M66.4173 88.1411C65.5419 88.5465 64.6004 88.7762 63.607 88.8313C63.098 88.8597 63.1202 89.5384 63.6332 89.5101C64.7646 89.4473 65.8359 89.1815 66.8325 88.7201C67.2832 88.5114 66.8665 87.9331 66.4173 88.1411Z" fill="#C6BAAF"/>
<path d="M43.4139 91.6644C41.8587 90.1429 41.2073 88.2591 40.5532 86.3576C39.8753 84.3866 39.2009 82.415 38.5245 80.4437C38.381 80.0254 37.6136 80.2033 37.7578 80.6244C38.5558 82.9509 39.3225 85.2875 40.1572 87.6047C40.7562 89.2674 41.4974 90.8194 42.8517 92.1446C43.1887 92.4744 43.7494 91.9923 43.4139 91.6644Z" fill="#C6BAAF"/>
<path d="M19.0158 74.8429C18.8965 74.5678 18.8172 74.3675 18.7851 74.2726C18.7296 74.1097 18.6303 73.872 18.5067 73.5935C18.1013 72.6837 17.4331 71.3117 17.1947 70.4122C16.8807 69.2339 17.6955 62.9595 17.6955 62.9595C17.6955 62.9595 15.5643 63.496 15.0197 63.496C14.4751 63.496 14.2644 62.9969 14.6737 62.6032C14.8844 62.3962 15.9975 61.0787 17.0113 59.87C17.0707 59.7985 17.1305 59.7274 17.1904 59.656C17.4249 59.3742 17.6517 59.106 17.8581 58.858C17.9097 58.7969 17.9574 58.7391 18.0051 58.6813C18.1283 58.5321 18.2397 58.3995 18.339 58.2807C18.3945 58.2129 18.4465 58.1485 18.4942 58.094C18.6573 57.897 18.7605 57.7715 18.7804 57.7478C18.6174 57.7952 15.214 58.8683 14.7253 58.1348C14.2245 57.3845 17.4883 54.7394 17.7788 54.5698C18.0728 54.4002 17.4648 47.8436 17.4648 47.8436C17.9101 47.6399 18.3793 47.4566 18.8684 47.2937L21.8143 47.5414C19.9138 54.1284 20.0612 61.1364 22.2319 67.662C21.7588 67.5024 21.2857 67.3428 20.8127 67.1832C18.5904 68.45 18.8344 72.288 19.0158 74.8429Z" fill="#72757A"/>
<path d="M120.183 84.2636C122.497 83.8392 124.29 83.3301 124.29 83.3301C124.29 83.3301 122.028 69.8202 121.026 66.9271C120.02 64.0309 115.249 58.7782 111.862 57.0636C108.471 55.3454 102.571 56.4186 99.8077 56.4186C97.0444 56.4186 93.4029 55.2403 90.2658 55.4543C87.1291 55.6683 80.7239 56.9551 78.7163 56.9551C76.7044 56.9551 74.6968 56.8466 70.1764 56.6326C65.66 56.4186 58.5037 55.5598 55.7404 53.8449C52.9771 52.1304 49.8403 50.4156 49.3356 49.8793C49.1288 49.6553 45.32 48.467 40.2152 47.489L32.8322 50.0693C32.8322 50.0693 36.9111 54.7277 44.5048 55.1014C44.7316 55.1151 44.9619 55.1217 45.1925 55.1251C53.2277 55.2406 40.6284 57.1344 40.6284 57.1344C43.6936 58.7404 46.3338 58.2827 49.9037 58.6666C49.7406 60.9414 49.5022 63.461 47.6971 65.1414C45.7411 66.9681 42.5367 67.3144 40.1033 68.6656L38.5242 80.4436C38.5242 80.4436 50.1363 83.675 51.7823 87.066C53.4282 90.4569 60.7663 101.327 63.9257 99.5811C67.0851 97.8356 62.6257 87.066 62.6257 87.066C62.6257 87.066 62.7188 70.7014 66.0631 69.5905C66.0631 69.5905 73.0309 74.2563 77.3041 73.6292C81.5778 73.0022 89.6293 73.8276 92.4783 74.8429C95.3273 75.8583 100.503 77.6039 101.445 76.9691C102.388 76.3344 98.7122 72.8436 98.7122 72.8436C98.7122 72.8436 106.132 77.2867 106.397 75.8586C106.661 74.4306 104.164 70.3047 104.164 70.3047C104.164 70.3047 115.973 81.5982 120.183 84.2636Z" fill="#72757A"/>
<path opacity="0.4" d="M51.1485 51.0983C43.0618 56.0215 28.6977 63.172 15.6176 61.5253C16.8143 60.1163 18.6988 57.8482 18.7824 57.7463C18.6194 57.7937 15.216 58.8669 14.7273 58.1333C14.2265 57.3831 17.4907 54.738 17.7808 54.5684C18.0752 54.3988 17.4668 47.8422 17.4668 47.8422C17.9121 47.6385 18.3813 47.4552 18.8704 47.2923C24.8021 45.2993 33.6004 46.2195 40.216 47.4892C45.3208 48.4672 49.1296 49.6555 49.3364 49.8796C49.5503 50.1069 50.2262 50.5413 51.1485 51.0983Z" fill="#72757A"/>
<path d="M83.6092 57.4055C80.1456 58.2412 76.7403 58.6459 73.1383 58.4118C69.6497 58.1855 65.7717 57.8456 62.4747 56.7905C61.995 56.6369 61.7878 57.293 62.2632 57.4452C65.6306 58.5227 69.5629 58.8586 73.1383 59.0906C76.8204 59.3297 80.2816 58.9137 83.8207 58.0599C84.3121 57.9417 84.1033 57.2863 83.6092 57.4055Z" fill="#4D5056"/>
<path d="M68.2912 59.3381C67.1985 59.3642 66.1534 59.2182 65.126 58.9014C64.6439 58.7528 64.4363 59.4089 64.9145 59.5561C66.0057 59.8924 67.132 60.0446 68.2912 60.0169C68.8018 60.0052 68.8042 59.3261 68.2912 59.3381Z" fill="#4D5056"/>
<path d="M104.542 63.9152C105.291 63.7099 105.864 63.3533 105.647 62.7319C105.468 62.2214 104.901 61.9326 104.217 61.7847C104.812 61.5243 105.21 61.152 105.062 60.6174C104.671 59.2097 101.941 59.6154 100.863 59.8561C100.456 59.947 100.629 60.4849 101.036 60.3937C101.488 60.2929 101.954 60.2 102.422 60.1807C103.128 60.1516 103.468 60.1039 103.836 60.6835C104.265 61.3576 103.728 61.3229 103.011 61.5309C102.821 61.586 102.63 61.6281 102.438 61.6652C101.966 61.6892 101.538 61.7483 101.241 61.8214C100.902 61.9052 100.949 62.4004 101.328 62.369C101.638 62.3436 102.179 62.2929 102.755 62.1907C103.497 62.1603 104.292 62.2364 104.562 62.6117C104.929 63.1209 104.247 63.4254 103.814 63.5162C103.582 63.5647 103.342 63.59 103.1 63.6061C102.82 63.5944 102.535 63.6067 102.244 63.6368C102.238 63.6368 102.231 63.6371 102.225 63.6371V63.6384C102.196 63.6414 102.168 63.6435 102.138 63.6471C101.772 63.6902 101.863 64.2031 102.225 64.1947C102.332 64.1924 102.479 64.1877 102.651 64.179C103.55 64.2087 105.506 64.5056 104.734 65.2214C104.284 65.6391 102.442 65.7046 101.872 65.7563C101.459 65.7937 101.454 66.3516 101.872 66.3139C102.733 66.2358 105.955 66.0999 105.917 65.0077C105.901 64.547 105.059 64.1233 104.542 63.9152Z" fill="#4D5056"/>
<path d="M117.512 60.8839C115.333 59.1653 113.201 57.1523 110.286 56.3854C109.795 56.2565 109.586 56.9116 110.074 57.0401C112.841 57.768 114.88 59.7319 116.95 61.3637C117.326 61.6601 117.889 61.1814 117.512 60.8839Z" fill="#4D5056"/>
<path d="M25.0178 85.3301C24.0052 84.3755 23.1048 83.4493 22.6118 82.2146C22.2231 81.241 21.4369 80.1104 21.5202 79.0874C21.5558 78.6513 20.7605 78.653 20.725 79.0874C20.6241 80.3281 21.5104 81.6974 22.0124 82.822C22.5289 83.9786 23.4961 84.9058 24.4556 85.8099C24.8 86.1348 25.361 85.6537 25.0178 85.3301Z" fill="#C6BAAF"/>
<path d="M25.9843 86.3867C25.4726 86.3867 25.4718 87.065 25.9843 87.065C26.4961 87.065 26.4969 86.3867 25.9843 86.3867Z" fill="#C6BAAF"/>
<path d="M58.1262 16.3911C58.0667 16.5914 57.8994 17.2806 57.673 18.2348C56.9454 21.362 55.6334 27.341 55.6971 28.3256C55.7807 29.6124 55.7807 30.6852 55.5301 30.6852C55.2795 30.6852 53.2481 30.6852 53.2481 30.6852L38.8597 18.6759C38.8597 18.6759 41.9726 16.3196 43.2249 15.1754C44.4811 14.0311 46.1552 12.1704 47.5783 11.1009C47.8566 10.8902 48.3891 10.5544 49.0651 10.147C51.8203 8.49359 57.0006 5.68224 57.5374 5.45453C58.209 5.16605 59.7995 4.52431 59.8832 4.88057C59.9668 5.2375 58.3764 15.532 58.1262 16.3911Z" fill="#72757A"/>
<path d="M43.8841 20.8655C43.8841 20.8655 47.4536 19.0348 47.7882 18.6415C48.1229 18.2485 47.8719 17.7837 48.96 17.1046C50.048 16.4254 52.4755 15.0318 53.2285 14.4241C53.9819 13.8164 55.7397 12.78 55.7397 12.78C55.7397 12.78 54.5156 21.0628 54.5156 21.9206C54.5156 22.7784 53.668 25.4054 53.7622 25.9146C53.8564 26.4238 53.2915 27.8178 53.2915 27.8178C53.2915 27.8178 53.9194 27.2548 54.2329 27.5496C54.5469 27.8445 53.4795 29.3456 53.2598 29.3991C53.0401 29.4528 46.7835 29.0775 46.7835 29.0775L43.8837 24.8131L43.8841 20.8655Z" fill="#FCF5EC"/>
<path opacity="0.4" d="M55.6966 28.3254C55.7803 29.6122 55.7803 30.6849 55.5296 30.6849C55.279 30.6849 53.2476 30.6849 53.2476 30.6849L38.8593 18.6756C38.8593 18.6756 41.9721 16.3193 43.2244 15.1751C44.4806 14.0309 46.1547 12.1701 47.5778 11.1006C47.8562 10.89 48.3887 10.5541 49.0646 10.1467C51.3983 11.695 55.2509 14.5945 57.6721 18.2345C56.9449 21.3617 55.6332 27.3407 55.6966 28.3254Z" fill="#72757A"/>
<path d="M44.793 20.4456C46.1649 19.4049 47.8852 18.7031 49.6949 18.4453C48.9689 19.037 48.2425 19.629 47.5165 20.2206C48.8325 20.6737 50.0077 21.4199 50.8948 22.3658C48.9052 21.8961 46.8393 21.663 44.7754 21.6747C44.7352 21.3565 44.5135 21.08 44.3489 20.7926C44.1843 20.5047 44.0772 20.1515 44.2633 19.8737C44.4052 19.6617 44.682 19.5481 44.9424 19.447C45.6332 19.1782 46.324 18.9098 47.0149 18.641L44.793 20.4456Z" fill="#72757A"/>
<path d="M32.1127 17.7254C31.8183 18.5912 29.9221 19.6199 27.5564 20.5878H27.5525C23.0599 22.4282 16.8854 24.0476 16.806 23.9154C16.6907 23.7184 16.7384 20.0108 17.0246 19.2773C17.3107 18.5441 17.4061 17.3758 17.8358 16.2589C18.0942 15.5831 18.5396 14.5818 18.9411 13.5461C19.2034 12.8703 19.4501 12.1811 19.6088 11.5564C20.0186 9.97079 20.0463 9.38348 20.4873 7.99483C20.9287 6.60284 22.6861 3.97146 22.7417 3.69967C22.7933 3.42789 22.7972 2.49099 22.8054 2.294C22.8093 2.19884 22.8769 1.44859 22.9762 0.915368V0.912029C23.0795 0.341745 23.2186 0.0292247 23.366 1.06495C23.6483 3.06462 24.6261 2.82722 25.0636 3.30936C25.5007 3.79149 27.807 6.44992 28.6617 8.29366C29.1824 9.42087 29.7192 10.7688 30.256 12.0012C30.5977 12.7855 30.9398 13.519 31.2776 14.1234C32.1483 15.6743 32.1127 17.7254 32.1127 17.7254Z" fill="#EADFD3"/>
<path d="M32.1129 17.7252C31.8185 18.591 29.9223 19.6197 27.5566 20.5877L25.4196 21.8217C25.332 21.6147 24.5059 21.0611 24.4304 20.9286C24.1204 20.4194 24.4586 17.9249 23.8502 16.2645C23.5402 15.4224 23.498 13.2718 23.4421 12.5386C23.3866 11.8257 24.1454 10.765 24.0739 10.0314C23.9386 8.54092 23.8076 8.57498 23.6524 6.65979C23.4972 4.73792 23.6602 4.58867 23.7756 3.9299C23.8909 3.2678 22.9764 0.91488 22.9764 0.91488V0.911541C23.0797 0.341257 23.2188 0.0287364 23.3662 1.06446C23.6485 3.06413 24.6263 2.82673 25.0638 3.30887C25.5009 3.791 27.8072 6.44943 28.6619 8.29317C29.1826 9.42038 29.7194 10.7683 30.2562 12.0007C30.5979 12.785 30.94 13.5185 31.2778 14.1229C32.1485 15.6741 32.1129 17.7252 32.1129 17.7252Z" fill="#72757A"/>
<path opacity="0.4" d="M32.1128 17.7254C31.8184 18.5911 29.9223 19.6198 27.5565 20.5878H27.5526C23.06 22.4282 16.8855 24.0476 16.8061 23.9153C16.6908 23.7183 16.7385 20.0108 17.0247 19.2773C17.3109 18.5441 17.4063 17.3758 17.8359 16.2589C18.0944 15.5831 18.5397 14.5818 18.9412 13.5461C20.631 12.8162 22.4517 12.3985 24.2013 12.1744C26.4872 11.8789 28.654 11.913 30.2561 12.0012C30.5978 12.7855 30.9399 13.519 31.2777 14.1234C32.1484 15.6743 32.1128 17.7254 32.1128 17.7254Z" fill="#72757A"/>
<path d="M57.0392 44.8631C55.3228 45.4808 53.6026 45.9115 53.6026 45.9115C53.6026 45.9115 54.7911 46.1486 55.8819 46.379C56.6873 46.5459 57.4458 46.7095 57.6178 46.7729C57.8876 46.8631 56.5387 47.8414 54.0248 48.8965C53.9271 48.9366 53.8254 48.9833 53.7238 49.0234C52.3476 49.5876 50.6547 50.1586 48.7077 50.6327C43.8441 51.8047 37.3775 50.8497 32.8306 50.0718C31.9783 49.9249 24.1159 49.5676 23.42 49.4474C19.0256 48.6962 12.4104 48.0484 12.4104 48.0484C12.4104 48.0484 6.83916 46.98 5.66235 45.8982L11.8083 34.6394H9.69712C10.3579 33.8247 10.9443 32.5993 11.5034 31.2905C11.5151 31.2604 11.5308 31.2304 11.5425 31.2003C11.6793 30.8798 11.8162 30.5526 11.9491 30.2287C11.9647 30.1953 11.9804 30.1586 11.9921 30.1252C12.0625 29.9549 12.1328 29.7913 12.1993 29.6244C12.2462 29.5142 12.2931 29.3973 12.3401 29.2871C12.3831 29.1803 12.4261 29.0735 12.473 28.97C12.5199 28.8564 12.5668 28.7429 12.6137 28.6327C12.8366 28.1018 13.0594 27.5977 13.2862 27.1369C13.5403 26.626 13.7944 26.172 14.0564 25.808C14.0642 25.7947 14.0759 25.7846 14.0838 25.7713C14.1815 25.6444 14.2832 25.5142 14.3887 25.3873C14.7601 24.9432 15.2019 24.5192 15.6789 24.1152C16.2341 23.6377 16.8401 23.1937 17.4539 22.7796C17.4617 22.7796 17.4617 22.7763 17.4656 22.7763C19.0881 21.6845 20.738 20.8197 21.5473 20.2888C23.0095 19.3239 27.404 18.5726 27.404 18.5726C27.404 18.5726 26.0239 17.5008 25.9027 17.3573C25.7736 17.2137 28.659 17.3573 29.9609 17.3573C31.255 17.3573 35.6103 18.3923 35.6103 18.3923C46.7607 16.5359 51.3467 28.6895 52.1795 29.4708C53.02 30.2588 54.3572 32.1886 54.3572 32.1886L52.5157 31.6912C52.5157 31.6912 54.103 35.5509 55.53 37.1937C56.4605 38.2688 58.2942 40.2688 59.4436 41.5175C60.0496 42.1786 60.4679 42.626 60.4679 42.626C60.5931 43.3906 58.8142 44.2254 57.0392 44.8631Z" fill="#EADFD3"/>
<path d="M26.8586 29.2062C26.8586 29.2062 28.0996 27.064 30.452 26.5879C32.8045 26.1117 36.4674 28.4126 36.0526 28.9682C35.6382 29.5238 30.0638 27.5401 26.8586 29.2062Z" fill="#72757A"/>
<path d="M16.6093 28.3057C16.3435 28.5027 14.9516 27.678 13.2861 27.1371C13.5403 26.6262 13.7944 26.1722 14.0563 25.8082C14.0642 25.7949 14.0759 25.7848 14.0837 25.7715C15.6046 26.3658 16.9729 28.0353 16.6093 28.3057Z" fill="#72757A"/>
<path d="M25.7955 33.6624C25.7955 33.6624 27.3101 31.3262 30.7889 31.434C34.2677 31.5419 35.6611 34.3983 35.011 34.3983C34.3608 34.3983 31.7014 32.2761 30.1802 32.6033C28.659 32.9305 26.3597 33.9666 26.0809 34.0437C25.8018 34.1205 25.6473 33.8594 25.7955 33.6624Z" fill="#231508"/>
<path d="M14.9321 32.9132C14.4551 32.9132 12.899 31.7713 11.5033 31.2905C11.515 31.2605 11.5307 31.2304 11.5424 31.2004C11.6792 30.8798 11.8161 30.5526 11.949 30.2288C11.9646 30.1954 11.9803 30.1586 11.992 30.1252C14.5255 30.7697 15.499 32.9132 14.9321 32.9132Z" fill="#231508"/>
<path d="M57.0407 44.8606C55.3232 45.4786 53.6057 45.9097 53.6057 45.9097C53.6057 45.9097 54.7946 46.1474 55.8838 46.3748C56.6908 46.5444 57.4461 46.7077 57.6213 46.7688C57.8875 46.8606 56.5399 47.8382 54.0271 48.8943C53.9001 48.8943 53.8004 48.9351 53.7249 49.0199C52.3491 49.5835 50.6558 50.1574 48.7076 50.6292C43.8452 51.8005 37.381 50.8466 32.8325 50.069C32.9951 50.0967 33.4267 49.867 33.5737 49.8169C34.2501 49.5868 34.9269 49.3564 35.6032 49.1264C36.5029 48.8202 37.4025 48.5147 38.3017 48.2082C39.1861 47.907 40.1197 47.7304 41.0103 47.4235C42.7036 46.8402 44.3062 46.1655 45.9959 45.5905C45.9959 45.5905 44.6283 38.1922 44.692 37.3468C44.7558 36.5013 45.9881 35.8326 45.9881 35.8326C45.9881 35.8326 44.3499 21.8673 33.3501 22.7514C24.0099 23.502 19.1303 34.5184 17.4663 34.0423C16.7481 32.4653 20.3239 27.0466 20.2629 25.1117C20.1836 22.5975 17.5676 22.705 17.4663 22.7741C19.0885 21.681 20.7383 20.8186 21.5496 20.2853C23.0126 19.3211 27.4059 18.5708 27.4059 18.5708C27.4059 18.5708 26.0262 17.498 25.903 17.3551C25.7759 17.2125 28.662 17.3551 29.9624 17.3551C31.2584 17.3551 35.6119 18.3908 35.6119 18.3908C46.7638 16.5337 51.3478 28.6857 52.1829 29.47C53.0219 30.2576 54.3575 32.1862 54.3575 32.1862L52.5168 31.687C52.5168 31.687 54.1073 35.5474 55.5304 37.1908C56.4648 38.2673 58.2976 40.267 59.4463 41.5164C60.0507 42.1751 60.4679 42.6232 60.4679 42.6232C60.595 43.3872 58.8176 44.2225 57.0407 44.8606Z" fill="#72757A"/>
<g opacity="0.65">
<path d="M31.5105 34.046C30.469 34.021 29.4446 34.1198 28.4348 34.3385C27.9472 34.444 28.1541 35.0884 28.6428 34.9826C29.5873 34.7779 30.537 34.6904 31.5105 34.7138C32.0141 34.7258 32.0137 34.0581 31.5105 34.046Z" fill="#C6BAAF"/>
<path d="M30.6149 35.2046C30.2747 35.1676 29.9334 35.1929 29.6023 35.2671C29.1159 35.3762 29.3223 36.0206 29.8102 35.9108C30.0781 35.8507 30.3404 35.8423 30.6152 35.8721C30.8252 35.8948 31.0062 35.7021 31.0062 35.5382C31.0058 35.3392 30.8252 35.2277 30.6149 35.2046Z" fill="#C6BAAF"/>
<path d="M12.5432 32.2891C12.3215 32.1556 12.0846 32.0567 11.8313 31.9743C11.6338 31.9102 11.4024 32.0454 11.3504 32.2073C11.2898 32.3953 11.4255 32.5536 11.6233 32.618C11.8113 32.6791 11.9841 32.7666 12.1483 32.8654C12.3208 32.9693 12.5831 32.8918 12.6832 32.7456C12.7977 32.5789 12.716 32.3933 12.5432 32.2891Z" fill="#C6BAAF"/>
</g>
<path d="M32.3153 49.5896C30.7683 49.8146 29.0941 49.5598 27.5369 49.4647C27.0259 49.4333 26.961 50.1104 27.4716 50.1415C29.1043 50.2413 30.8378 50.4931 32.4631 50.2567C32.9678 50.1832 32.82 49.5161 32.3153 49.5896Z" fill="#C6BAAF"/>
<path d="M59.6062 4.48457C57.5853 5.59175 55.1942 6.07188 53.3832 7.44417C52.9997 7.73465 53.5639 8.21345 53.9454 7.9243C55.6766 6.61245 58.0611 6.13766 60.0078 5.07121C60.4367 4.83582 60.0387 4.24784 59.6062 4.48457Z" fill="#4D5056"/>
<path d="M2.84424 42.541C2.84424 42.541 4.89876 46.2545 6.7105 46.7009C8.52224 47.1474 9.34952 47.2933 9.34952 47.2933C9.34952 47.2933 10.5963 44.1146 11.336 43.8906C12.0757 43.6662 16.2376 43.6632 17.4664 43.2926C18.6952 42.9223 18.8242 42.7263 18.8242 42.7263C18.8242 42.7263 11.1644 44.5981 6.60337 41.8562C6.60337 41.8562 5.87618 42.2786 2.84424 42.541Z" fill="#231508"/>
<path d="M12.0362 43.213C9.45548 43.9115 9.60796 46.9622 8.04214 48.4774C6.47515 49.9956 4.55199 51.0748 3.26063 50.4871C1.96536 49.8988 2.58347 47.1689 3.227 45.5319C3.87366 43.8991 7.99131 41.6177 7.99131 41.6177L8.64657 41.8774L9.10713 42.0564L12.0362 43.213Z" fill="#F57D48"/>
<path d="M9.10672 42.0563C7.55537 43.4886 6.36019 45.2025 5.6502 47.0489C5.59624 47.1855 5.42852 47.2546 5.27135 47.2122C5.11887 47.1674 5.03364 47.0269 5.08368 46.8893C5.08368 46.8893 5.08369 46.8893 5.08447 46.886C5.83981 45.0212 7.07018 43.3113 8.64617 41.877L9.10672 42.0563Z" fill="#231508"/>
<path d="M13.1974 33.2949C13.1974 33.2949 0.102775 36.0999 0.00972531 37.2552C-0.0833246 38.4101 0.474193 42.2185 2.42511 42.3771C4.37603 42.5357 6.59867 41.9009 6.59867 41.9009C6.59867 41.9009 10.0951 43.567 13.4136 43.2498C16.7321 42.9326 31.5036 40.3143 31.5036 40.3143C31.5036 40.3143 23.3985 34.7814 20.6226 34.4141C17.8472 34.0465 13.1974 33.2949 13.1974 33.2949Z" fill="#EADFD3"/>
<path d="M41.5983 40.0505C41.6495 41.0135 39.208 41.8899 36.1451 42.0081C33.0823 42.1263 30.5582 41.4419 30.507 40.4789C30.4562 39.516 32.8974 38.6395 35.9602 38.5213C39.023 38.4031 41.5475 39.0876 41.5983 40.0505Z" fill="#D8C9BA"/>
<path d="M1.99509 36.4778C2.42085 36.1399 7.97765 34.5987 9.34916 36.7166C9.34916 36.7166 7.46001 40.199 5.44497 40.3656C3.42993 40.5323 2.03809 37.56 1.97241 36.6561L1.99509 36.4778Z" fill="#231508"/>
<path d="M11.7126 43.5427C9.93647 43.543 7.22474 42.4084 6.59528 42.1343C5.20774 42.6635 3.68102 42.8805 2.16486 42.762C2.00339 42.7493 1.88492 42.6275 1.89939 42.4899C1.91385 42.3523 2.05421 42.2505 2.21803 42.2632C3.67711 42.3777 5.15105 42.158 6.47916 41.6291L6.61131 41.5764L6.74033 41.6345C6.77278 41.6492 10.0409 43.1103 11.8409 43.0395L12.2604 43.0235C14.4502 42.9423 19.5785 42.752 22.7387 41.4755C22.8853 41.4168 23.06 41.4702 23.1292 41.5947C23.1984 41.7196 23.1359 41.8692 22.9897 41.9283C19.7227 43.2478 14.5112 43.4412 12.2862 43.5236L11.869 43.5393C11.8178 43.5417 11.7654 43.5427 11.7126 43.5427Z" fill="#231508"/>
<path d="M13.7719 41.6679C12.0364 42.2663 10.2563 41.8342 8.60564 41.2435C8.20138 41.099 7.93357 41.6339 8.339 41.7791C10.1535 42.4282 12.1181 42.8656 14.0189 42.2102C14.4259 42.0699 14.1789 41.5277 13.7719 41.6679Z" fill="#C6BAAF"/>
<path d="M18.5313 41.1097C17.7822 41.3755 16.994 41.4934 16.1847 41.485C15.6808 41.48 15.671 42.1478 16.1742 42.1528C17.1332 42.1625 18.0387 42.0012 18.9231 41.6877C19.386 41.5238 18.9911 40.9468 18.5313 41.1097Z" fill="#C6BAAF"/>
<path d="M131.004 107.564C131.068 109.065 127.995 108.369 127.995 108.369C127.995 108.369 128.746 110.406 128.182 110.888C127.744 111.262 126.428 109.238 125.872 108.318C123.749 113.618 120.043 121.855 119.896 122.11C119.725 122.398 119.98 125.186 118.974 125.97C117.968 126.758 116.044 126.972 113.785 126.829C111.523 126.687 109.515 126.901 107.758 127.328C106.001 127.759 102.32 126.473 101.898 125.827C101.481 125.186 101.481 124.041 102.065 123.182C102.654 122.327 103.321 122.541 104.745 122.038C106.168 121.539 107.003 121.325 108.259 120.969C109.515 120.609 110.605 117.465 111.432 116.409C112.259 115.356 112.613 112.246 112.613 111.244C112.613 110.246 113.364 101.88 113.364 101.88C113.364 101.88 112.946 101.453 112.279 101.167C111.607 100.882 105.329 98.6649 104.077 98.2372C102.82 97.8058 101.397 97.6632 100.558 97.164C99.7232 96.6649 96.1252 93.5176 94.2802 90.3734C92.4395 87.2291 87.5095 82.7881 87.5095 82.7881L118.373 83.0021L124.241 83.0428L125.335 88.6585C125.335 88.6585 127.342 88.156 128.265 88.6585C129.183 89.1577 126.841 90.0879 126.841 90.0879C126.841 90.0879 127.855 90.1387 128.825 90.543C129.004 90.6145 129.183 90.7026 129.354 90.8011C130.348 91.3918 128.75 99.8802 127.06 105.099C127.061 105.099 130.945 106.063 131.004 107.564Z" fill="#EADFD3"/>
<path d="M118.575 125.61C116.703 127.314 112.887 126.328 110.517 126.746C108.841 127.042 107.526 127.802 105.756 127.395C104.215 127.04 102.894 126.074 101.641 125.192C101.227 124.901 100.83 125.565 101.24 125.853C102.645 126.842 104.102 127.855 105.842 128.19C107.4 128.491 108.559 127.972 110.051 127.622C112.835 126.969 116.883 128.203 119.137 126.152C119.51 125.813 118.947 125.272 118.575 125.61Z" fill="#A5958C"/>
<path d="M104.405 123.072C103.444 124.1 103.076 125.339 103.363 126.635C103.458 127.064 104.225 126.882 104.13 126.454C103.901 125.42 104.197 124.376 104.967 123.552C105.283 123.214 104.724 122.73 104.405 123.072Z" fill="#4D5056"/>
<path d="M110.229 123.826C109.36 123.849 108.608 124.24 108.186 124.896C107.976 125.221 107.871 125.592 107.849 125.962C107.838 126.134 107.851 126.303 107.876 126.474C107.909 126.708 108.129 127.109 108.045 127.336C107.89 127.754 108.658 127.932 108.812 127.517C108.987 127.044 108.623 126.554 108.642 126.067C108.673 125.277 109.234 124.531 110.229 124.505C110.739 124.491 110.742 123.812 110.229 123.826Z" fill="#4D5056"/>
<path d="M121.945 107.154C121.826 106.729 121.06 106.909 121.179 107.334C121.356 107.967 121.351 108.692 120.726 109.166C119.698 109.947 119.099 109.19 118.953 108.411C118.95 108.394 118.949 108.378 118.946 108.361C119.479 107.44 119.574 106.17 119.402 105.423C119.318 105.054 118.769 105.15 118.636 105.423C118.342 106.022 118.002 107.188 118.05 108.218C117.829 108.533 117.694 108.624 117.206 108.329C116.693 108.019 116.732 107.982 116.765 107.502C116.789 107.158 116.851 106.816 116.929 106.478C117.058 105.921 117.258 105.376 117.45 104.834C117.599 104.414 116.831 104.235 116.683 104.653C116.365 105.551 114.84 109.598 117.237 109.477C117.627 109.457 117.956 109.337 118.234 109.15C118.427 109.631 118.78 110.001 119.377 110.134C121.434 110.591 122.319 108.491 121.945 107.154Z" fill="#C6BAAF"/>
<path d="M107.696 80.5915C107.661 81.4026 107.551 82.1982 107.279 82.9775C107.143 83.3829 106.967 83.7762 106.754 84.1575C105.442 84.654 104.532 84.4213 104.024 83.4597C103.815 83.2109 103.256 83.264 103.283 83.6309C103.365 84.7047 103.27 86.2199 101.84 86.4436C100.889 86.5929 100.898 86.4126 100.361 85.7895C99.9992 85.3688 99.7217 84.9592 99.446 84.4927C99.2154 84.1024 98.5292 84.446 98.7595 84.8353C99.3135 85.7735 100.513 87.8613 102.105 87.5134C103.441 87.2213 103.947 85.7528 104.063 84.5525C104.812 85.2129 105.795 85.7081 106.828 85.1154C108.27 84.289 108.435 81.9057 108.491 80.5909C108.51 80.1545 107.715 80.1552 107.696 80.5915Z" fill="#C6BAAF"/>
<path d="M128.826 90.5416C127.526 91.4244 126.361 92.7112 125.483 93.4107C124.604 94.1069 124.04 93.7299 124.29 93.1426C124.541 92.552 124.604 90.355 124.29 90.0869C123.976 89.8188 122.847 89.1737 122.155 88.4775C121.463 87.7814 121.403 87.1907 120.485 85.3673C119.567 83.544 118.374 83.0007 118.374 83.0007L124.242 83.0415L125.335 88.6572C125.335 88.6572 127.343 88.1547 128.266 88.6572C129.184 89.1563 126.842 90.0865 126.842 90.0865C126.842 90.0865 127.856 90.1376 128.826 90.5416Z" fill="#72757A"/>
<path d="M119.017 118.446C118.95 118.049 118.245 118.218 118.312 118.612C118.577 120.192 118.411 122.711 116.248 123.294C115.8 123.415 115.992 124.018 116.443 123.897C119.042 123.196 119.345 120.391 119.017 118.446Z" fill="#C6BAAF"/>
</svg>
