<svg width="52" height="49" viewBox="0 0 52 49" fill="none" xmlns="http://www.w3.org/2000/svg">
<g filter="url(#filter0_d_3269_7221)">
<rect x="6" y="2" width="40" height="40" rx="8" fill="#3950EE"/>
</g>
<path d="M26 8C33.7322 8 40 14.2678 40 22C40 29.7322 33.7322 36 26 36C18.2678 36 12 29.7322 12 22C12 14.2678 18.2678 8 26 8ZM25.986 19.2H24.6C24.2432 19.2004 23.9 19.337 23.6405 19.582C23.381 19.8269 23.2249 20.1617 23.204 20.518C23.183 20.8742 23.2989 21.2249 23.528 21.4986C23.757 21.7722 24.0819 21.9481 24.4362 21.9902L24.6 22V28.986C24.6 29.714 25.1516 30.316 25.86 30.3916L26.014 30.4H26.7C26.9944 30.4 27.2814 30.3072 27.52 30.1347C27.7587 29.9623 27.9369 29.719 28.0293 29.4394C28.1217 29.1598 28.1236 28.8583 28.0348 28.5775C27.9459 28.2968 27.7708 28.0513 27.5344 27.8758L27.4 27.7876V20.614C27.4 19.886 26.8484 19.284 26.14 19.2084L25.986 19.2ZM26 15C25.6287 15 25.2726 15.1475 25.0101 15.4101C24.7475 15.6726 24.6 16.0287 24.6 16.4C24.6 16.7713 24.7475 17.1274 25.0101 17.3899C25.2726 17.6525 25.6287 17.8 26 17.8C26.3713 17.8 26.7274 17.6525 26.9899 17.3899C27.2525 17.1274 27.4 16.7713 27.4 16.4C27.4 16.0287 27.2525 15.6726 26.9899 15.4101C26.7274 15.1475 26.3713 15 26 15Z" fill="white"/>
<defs>
<filter id="filter0_d_3269_7221" x="0" y="0" width="52" height="52" filterUnits="userSpaceOnUse" color-interpolation-filters="sRGB">
<feFlood flood-opacity="0" result="BackgroundImageFix"/>
<feColorMatrix in="SourceAlpha" type="matrix" values="0 0 0 0 0 0 0 0 0 0 0 0 0 0 0 0 0 0 127 0" result="hardAlpha"/>
<feOffset dy="4"/>
<feGaussianBlur stdDeviation="3"/>
<feComposite in2="hardAlpha" operator="out"/>
<feColorMatrix type="matrix" values="0 0 0 0 0.223529 0 0 0 0 0.313726 0 0 0 0 0.933333 0 0 0 0.25 0"/>
<feBlend mode="normal" in2="BackgroundImageFix" result="effect1_dropShadow_3269_7221"/>
<feBlend mode="normal" in="SourceGraphic" in2="effect1_dropShadow_3269_7221" result="shape"/>
</filter>
</defs>
</svg>
