<svg width="52" height="49" viewBox="0 0 52 49" fill="none" xmlns="http://www.w3.org/2000/svg">
<g filter="url(#filter0_d_3269_7235)">
<rect x="6" y="2" width="40" height="40" rx="8" fill="#EF9400"/>
</g>
<path d="M23.2438 9.6315C24.4423 7.45617 27.5576 7.45617 28.7561 9.6315L39.6016 29.3065C40.7637 31.4143 39.2445 34 36.8447 34H15.1567C12.7555 34 11.2363 31.4143 12.3984 29.3065L23.2438 9.6329V9.6315ZM27.398 28.379C27.404 28.191 27.3722 28.0037 27.3046 27.8283C27.237 27.6528 27.135 27.4928 27.0046 27.3577C26.8742 27.2226 26.718 27.1152 26.5455 27.0419C26.3729 26.9685 26.1874 26.9307 26 26.9307C25.8126 26.9307 25.6271 26.9685 25.4545 27.0419C25.2819 27.1152 25.1258 27.2226 24.9954 27.3577C24.865 27.4928 24.763 27.6528 24.6954 27.8283C24.6278 28.0037 24.596 28.191 24.602 28.379C24.6135 28.7434 24.7658 29.0891 25.0267 29.3428C25.2876 29.5965 25.6367 29.7384 26 29.7384C26.3633 29.7384 26.7123 29.5965 26.9733 29.3428C27.2342 29.0891 27.3865 28.7434 27.398 28.379ZM27.0354 17.3435C26.9991 17.0789 26.864 16.8379 26.6575 16.6694C26.451 16.5009 26.1884 16.4174 25.9228 16.4357C25.6573 16.4541 25.4086 16.573 25.2271 16.7684C25.0455 16.9638 24.9447 17.2211 24.945 17.4883L24.9506 23.8133L24.9604 23.9567C24.9967 24.2213 25.1317 24.4623 25.3383 24.6308C25.5448 24.7993 25.8074 24.8828 26.073 24.8644C26.3385 24.8461 26.5872 24.7271 26.7687 24.5317C26.9502 24.3364 27.0511 24.0791 27.0508 23.8119L27.0452 17.4855L27.0354 17.3435Z" fill="white"/>
<defs>
<filter id="filter0_d_3269_7235" x="0" y="0" width="52" height="52" filterUnits="userSpaceOnUse" color-interpolation-filters="sRGB">
<feFlood flood-opacity="0" result="BackgroundImageFix"/>
<feColorMatrix in="SourceAlpha" type="matrix" values="0 0 0 0 0 0 0 0 0 0 0 0 0 0 0 0 0 0 127 0" result="hardAlpha"/>
<feOffset dy="4"/>
<feGaussianBlur stdDeviation="3"/>
<feComposite in2="hardAlpha" operator="out"/>
<feColorMatrix type="matrix" values="0 0 0 0 0.937255 0 0 0 0 0.580392 0 0 0 0 0 0 0 0 0.25 0"/>
<feBlend mode="normal" in2="BackgroundImageFix" result="effect1_dropShadow_3269_7235"/>
<feBlend mode="normal" in="SourceGraphic" in2="effect1_dropShadow_3269_7235" result="shape"/>
</filter>
</defs>
</svg>
